<svg xmlns="http://www.w3.org/2000/svg" xmlns:xlink="http://www.w3.org/1999/xlink" width="165" height="34" viewBox="0 0 165 34"><defs><polygon id="a" points="0 0 164.222 0 164.222 33.261 0 33.261"/></defs><g fill="none" fill-rule="evenodd" transform="translate(.51)"><mask id="b" fill="#fff"><use xlink:href="#a"/></mask><path fill="#14332D" d="M127.041364,13.2631609 L127.041364,23.0544952 L128.983042,23.0544952 L128.983042,11.7462009 L126.560175,12.4252138 L127.041364,13.2631609 Z M128.090991,8.09689328 C127.474963,8.09689328 126.719866,8.52732972 126.719866,9.20737293 C126.719866,9.81966941 127.199469,10.2498483 127.794346,10.2498483 C128.413546,10.2498483 129.142997,9.81966941 129.142997,9.13936861 C129.142997,8.55025542 128.685868,8.09689328 128.090991,8.09689328 Z M118.305135,6.555462 L115.719668,6.555462 L116.247919,7.43977577 L116.247919,23.0544952 L124.457219,23.0544952 L125.028565,21.5586578 L118.305135,21.5586578 L118.305135,6.555462 Z M139.274939,21.5125488 C138.747746,21.8301599 138.108452,21.9198019 137.491102,21.9198019 C136.256931,21.9198019 135.089386,21.4213611 134.220602,20.583414 L134.220602,14.1026537 C134.952168,13.4220953 135.616315,13.151366 136.62126,13.151366 C139.205669,13.151366 141.171935,15.2584695 141.171935,17.7962672 C141.171935,19.2238427 140.531319,20.7431211 139.274939,21.5125488 Z M137.718213,11.7462009 C136.369825,11.7462009 135.295081,12.2446417 134.220602,12.992174 L134.220602,6.28267194 L131.796412,6.96297274 L132.276015,7.80143511 L132.276015,22.4638365 C132.437029,22.5102031 132.872743,22.6013907 133.008375,22.6013907 C133.146386,22.6013907 133.192126,22.1472558 133.282283,22.1472558 C133.352081,22.1472558 133.37429,22.2147449 133.44356,22.2611115 C133.603516,22.3736792 133.787002,22.4857318 133.969167,22.5776922 C134.861218,23.0544952 135.844219,23.3252245 136.85075,23.3252245 C137.788012,23.3252245 138.702271,23.0779361 139.526374,22.6227708 L140.419218,22.1243301 C142.178467,21.1506318 143.139259,19.2462532 143.139259,17.2761887 C143.139259,14.2600425 140.805227,11.7462009 137.718213,11.7462009 Z M160.951457,20.9906671 C160.815032,21.1277061 160.515743,21.4213611 160.35658,21.5125488 C159.898658,21.7861116 159.122145,21.9198019 158.596538,21.9198019 C156.012129,21.9198019 154.091602,19.790803 154.091602,17.2761887 C154.091602,15.8470676 154.731161,14.3290772 155.988598,13.5581039 C156.515791,13.2402352 157.109611,13.151366 157.726696,13.151366 C160.312163,13.151366 162.255163,15.2801073 162.255163,17.7962672 C162.255163,18.9747511 161.774502,20.1290215 160.951457,20.9906671 Z M158.596538,11.7462009 C157.566476,11.7462009 156.628157,11.9942621 155.735842,12.4927029 C155.441312,12.6511221 155.143609,12.8340125 154.846435,12.992174 C153.085071,13.9880252 152.10207,15.7790632 152.10207,17.7962672 C152.10207,20.9002523 154.59315,23.3252245 157.726696,23.3252245 C158.755172,23.3252245 159.717286,23.0544952 160.609337,22.5560545 C160.90704,22.3966049 161.180683,22.2147449 161.477857,22.0570985 C163.237899,21.0367761 164.222222,19.2913319 164.222222,17.2761887 C164.222222,14.1479899 161.729821,11.7462009 158.596538,11.7462009 Z M148.693822,12.3801351 C148.33108,12.6065586 147.712936,13.0158725 147.459651,13.354091 L147.459651,11.7462009 L145.060315,12.4252138 L145.53886,13.2631609 L145.53886,23.0544952 L147.482917,23.0544952 L147.482917,14.6227322 C148.054528,13.7170383 148.649405,13.2185975 149.74768,13.2185975 C150.4343,13.2185975 150.935847,13.4220953 151.576992,13.6495491 L152.079861,12.0171878 C151.712888,11.8353278 151.279289,11.7462009 150.867899,11.7462009 C149.998057,11.7462009 149.426446,11.926773 148.693822,12.3801351 Z M105.991978,12.2057453 L105.991978,22.958671 L107.362574,22.958671 L107.362574,11.134162 L105.654088,11.6132834 L105.991978,12.2057453 Z M97.7213397,18.2619937 C97.8339697,17.4776257 98.2688908,16.6314356 98.9629137,16.2172274 C99.3171959,15.9920919 99.7523813,15.9596353 100.171703,15.9596353 C101.542828,15.9596353 102.719891,16.9021649 102.912896,18.2619937 L97.7213397,18.2619937 Z M100.672193,14.9856795 C99.6088177,14.9856795 99.0919359,15.3205493 98.2035865,15.8491283 C96.9802554,16.5840386 96.2701047,17.8300117 96.2701047,19.2508899 C96.2701047,21.472622 98.0605517,23.1513499 100.286184,23.1513499 C101.107379,23.1513499 101.928837,22.9262143 102.63793,22.526689 C103.121764,22.255702 103.574663,22.0161414 103.976536,21.6477846 L103.655566,21.0736118 C102.719891,21.7595796 102.171018,22.1763637 100.944779,22.1763637 C99.5911036,22.1763637 98.351116,21.3443411 97.8990096,20.0659114 C97.8186351,19.8276387 97.7213397,19.522392 97.7213397,19.2673758 C97.7213397,19.2354344 97.7549172,19.1885526 97.7684011,19.1558384 L104.15447,19.1558384 C104.15447,18.6447756 104.186197,18.1643663 104.05691,17.6697894 C103.655566,16.1041445 102.316697,14.9856795 100.672193,14.9856795 Z M62.614354,14.9792397 C62.6088018,14.5240744 62.8520403,13.8417129 63.2845819,13.6333208 C63.4429513,13.5413604 63.9003455,13.4893268 64.0822456,13.4870085 C65.0427734,13.4761896 66.0545927,13.9638115 66.7940907,14.5658043 L67.4156709,12.9507017 C66.5844297,12.3711194 65.6209936,12.0648424 64.5911958,12.0766916 C64.0195852,12.0839042 63.4733561,12.2472176 62.9731308,12.5264475 L62.0876897,13.0357071 C61.1800399,13.5436788 60.6655376,14.5024367 60.6766419,15.5222439 C60.7239677,19.3521236 65.9840007,17.4547 66.0212796,20.6274622 C66.0339703,21.5555666 65.4724066,22.2634298 64.5118788,22.2760518 C63.3221252,22.2899618 62.2862464,21.7356235 61.3635264,21.0439887 L60.7197374,22.7052003 C61.6191912,23.330634 62.7216962,23.6794137 63.8194422,23.6660189 C64.4365278,23.6588064 65.0290251,23.4931746 65.5517235,23.1928222 L66.4136339,22.6856233 C67.3667588,22.1297395 67.9730043,21.1493439 67.9592561,20.0370611 C67.9106084,16.1167665 62.6505754,17.9479889 62.614354,14.9792397 Z M74.2073134,22.1853794 C72.8578684,22.2016077 71.6358592,21.3997234 71.6178807,19.9721479 C71.6091558,19.2696941 71.8970762,18.4057301 72.5308183,18.011099 C73.3261025,17.5265682 75.4512669,17.3900444 76.3885283,17.355527 L76.4284512,20.7323022 C75.8893606,21.486532 75.2109366,22.1745605 74.2073134,22.1853794 Z M78.3690716,20.3922806 L78.3024454,14.9766638 C78.2775927,12.9367917 76.7790319,11.9347584 74.8341813,11.9563961 C73.1204073,11.9762307 72.0517442,12.4656557 70.5973365,13.2979359 L70.9286167,14.1322768 C71.7691116,13.6693837 72.8171523,13.3847444 73.7776801,13.3739256 C75.0597057,13.3595004 76.1630039,13.980555 76.2719325,15.3398687 C76.3441109,15.6111132 76.3020729,15.9302698 76.3507206,16.2226369 C75.0263926,16.2847166 73.3816243,16.4833201 72.2238619,17.1767581 L71.3384208,17.7094586 C70.2261333,18.3794557 69.6883647,19.3142576 69.7052856,20.6076276 C69.7274944,22.4857318 71.2509078,23.5799832 73.056425,23.5601486 C74.246443,23.5449506 75.8335744,22.6186493 76.6246283,21.7724592 C76.8681313,23.0158564 77.628516,23.3247094 78.8169477,23.3089962 L79.4575639,23.3030716 L79.9659853,21.9594711 C78.754023,21.9738963 78.3846705,21.5936903 78.3690716,20.3922806 Z M53.5124743,22.4277736 C52.162765,22.4440019 50.9407558,21.640572 50.9230417,20.2132541 C50.9143168,19.5115731 51.2019728,18.6465788 51.8373012,18.2524628 C52.6312635,17.7671593 54.7580142,17.6311506 55.6936893,17.5968909 L55.7349341,20.973666 C55.1955791,21.7289261 54.5171552,22.4151516 53.5124743,22.4277736 Z M57.6755545,20.6328717 L57.6086639,15.2175124 C57.5840757,13.1789283 56.0852505,12.1766374 54.1409287,12.1982751 C52.4253039,12.2193977 51.3576983,12.7070195 49.9038194,13.5392997 L50.2345709,14.3754437 C51.0755945,13.9120355 52.1241641,13.6279114 53.0844274,13.6152894 C54.3646023,13.6008642 55.4697513,14.2219188 55.5778866,15.5817477 C55.6503294,15.852477 55.6072339,16.1690577 55.6572036,16.4647735 C54.3312892,16.5242773 52.6867853,16.7264871 51.5303448,17.4199251 L50.6433174,17.9508224 C49.5312943,18.6208196 48.9948476,19.5566518 49.0101822,20.8489914 C49.0337129,22.7288988 50.5560688,23.821347 52.362908,23.8015124 C53.552926,23.7857993 55.1416436,22.8613011 55.9311113,22.013823 C56.1743498,23.257993 56.9347346,23.565558 58.1234306,23.5521632 L58.7640469,23.5449506 L59.274319,22.2016077 C58.0623566,22.2147449 57.6908891,21.8355693 57.6755545,20.6328717 Z M93.2232778,21.5050786 C92.7561012,21.9687444 92.1749727,22.1601354 91.5301262,22.1601354 C89.707688,22.1601354 88.3220216,20.6576005 88.3220216,18.8851091 C88.3220216,17.8774087 88.7886695,16.8078862 89.6772832,16.2641092 C90.0466356,16.0392313 90.4820855,15.9758636 90.9019363,15.9758636 C91.7720428,15.9758636 92.6114801,16.3279921 93.2232778,16.9511074 L93.2232778,21.5050786 Z M93.2232778,12.2057453 L93.2232778,15.5601099 C92.6754624,15.1935563 92.0292939,14.9856795 91.369906,14.9856795 C90.708403,14.9856795 90.0466356,15.1608421 89.4660359,15.497515 L88.8542381,15.8491283 C87.6279987,16.5513244 86.9194343,17.84624 86.9194343,19.2508899 C86.9194343,21.3914805 88.578744,23.1513499 90.7559932,23.1513499 C91.740316,23.1513499 92.448616,22.7829931 93.23967,22.255702 L93.23967,22.958671 L94.5936096,22.958671 L94.5936096,11.134162 L92.8687312,11.6132834 L93.2232778,12.2057453 Z M42.6050775,22.5102031 C38.5125894,22.5560545 35.1556334,19.2869528 35.1056638,15.2314224 C35.0763165,12.8512711 36.2118702,10.3907512 38.301342,9.12082198 C39.27694,8.51934436 40.3958372,8.32434712 41.5165851,8.31172511 C43.2300947,8.29189052 44.6995726,8.68265777 46.1730164,9.57109301 L46.8599008,7.72853654 C45.4335184,7.06472163 43.919623,6.76436921 42.3435961,6.78291585 C40.8117222,6.80223526 39.3980305,7.24709686 38.0581035,7.98921977 C37.7411002,8.17339814 37.4449838,8.33593877 37.1282449,8.52192028 C34.5160747,10.0476384 32.9715101,12.7866155 33.0082603,15.7767449 C33.0661616,20.445087 36.9764852,24.0722417 41.6397907,24.0163442 C44.1324567,23.9880091 45.1791755,23.5449506 47.2459098,22.3177817 L47.0722058,21.2794279 C45.6421219,22.1111929 44.2741696,22.4903685 42.6050775,22.5102031 L42.6050775,22.5102031 Z" mask="url(#b)"/><path fill="#DEA02E" d="M29.3736952,25.2700451 C29.3736952,25.2700451 29.5164656,26.7645946 29.4186414,27.3828157 C29.3723732,27.6656519 25.1468971,33.2533402 17.4439033,33.2605597 C13.2329686,33.2657047 11.1887075,30.3904614 5.49639738,30.6421289 C3.55419068,30.7281646 1.54562216,31.4522561 0.206752742,32.5022016 C0.0457394173,32.0591432 -0.0687413208,31.6129936 0.00898924964,31.2940945 C0.523755987,30.3659901 1.31930458,29.5623027 2.21664321,28.9350659 C4.64056793,25.2141476 6.12828875,11.2936116 5.13021765,1.8515722 C5.97282761,1.00203337 7.05153757,0.276911535 8.19687373,0 C8.19687373,0 8.65268156,0.838462368 8.71084729,2.1001486 C8.92209466,6.56396254 7.24665716,20.8943277 4.77778619,27.5976475 C4.77778619,27.5976475 6.91669882,27.0487187 8.79968223,27.308114 C12.2148039,27.7836291 14.912372,30.8564455 19.458024,30.6890106 C25.8731756,30.4525411 29.3736952,25.2700451 29.3736952,25.2700451" mask="url(#b)"/><path fill="#DEA02E" d="M25.1003645,25.2213602 C25.1038016,25.2141476 25.1090894,25.2051319 25.1127908,25.1979193 C24.7865339,25.3223363 24.4602771,25.4434046 24.1329626,25.5621546 C23.7287108,25.7082093 23.3191711,25.8748714 22.8985271,25.9629679 C22.4131076,26.0647168 21.9266306,26.1620866 21.4472921,26.2885644 C21.3650669,26.3102021 21.2815198,26.3318398 21.2008809,26.3624933 C21.0721231,26.4114358 20.9468024,26.5082904 20.8516221,26.6028268 C20.5948997,26.8555246 20.5132033,27.2377913 20.6406391,27.5706004 C20.7720408,27.9168042 21.1165406,28.1803209 21.495411,28.2045346 C21.7875616,28.2223084 22.0675503,28.1123166 22.3292961,27.9984609 C22.6037326,27.8807413 22.877376,27.7506573 23.1296037,27.5940413 C23.4563894,27.3913162 23.7567361,27.1424823 24.0264136,26.8717529 C24.4978204,26.398041 24.8700811,25.8315959 25.1133196,25.215178 C25.1096182,25.2172387 25.1051235,25.219557 25.1003645,25.2213602"/></g></svg>